<svg width="172" height="29" fill="none" xmlns="http://www.w3.org/2000/svg"><path d="M46.386 18.931c.132 0 .249.051.351.153l.954 1.035a5.23 5.23 0 01-1.953 1.503c-.768.348-1.692.522-2.772.522-.966 0-1.836-.165-2.61-.495a5.753 5.753 0 01-1.971-1.377 6.083 6.083 0 01-1.26-2.106c-.288-.816-.432-1.707-.432-2.673 0-.978.156-1.872.468-2.682a6.201 6.201 0 011.314-2.106 5.96 5.96 0 012.034-1.368c.786-.33 1.656-.495 2.61-.495.948 0 1.788.156 2.52.468.738.312 1.365.72 1.881 1.224l-.81 1.125a.708.708 0 01-.189.189.502.502 0 01-.306.081.622.622 0 01-.279-.072 7.268 7.268 0 01-.315-.189 7.954 7.954 0 00-.396-.252 3.022 3.022 0 00-.522-.243 3.71 3.71 0 00-.693-.189 4.432 4.432 0 00-.9-.081c-.582 0-1.116.105-1.602.315a3.41 3.41 0 00-1.242.9c-.348.39-.618.87-.81 1.44-.192.564-.288 1.209-.288 1.935 0 .732.102 1.383.306 1.953.21.57.492 1.05.846 1.44.354.39.771.69 1.251.9.48.204.996.306 1.548.306.33 0 .627-.018.891-.054.27-.036.516-.093.738-.171.228-.078.441-.177.639-.297.204-.126.405-.279.603-.459a.742.742 0 01.189-.126.426.426 0 01.207-.054zm10.586 1.071V22H49.35V8.986h2.421v11.016h5.202zm13.683-4.509a7.27 7.27 0 01-.477 2.655 6.176 6.176 0 01-1.332 2.106 6.126 6.126 0 01-2.08 1.395c-.81.33-1.71.495-2.7.495-.983 0-1.88-.165-2.69-.495a6.223 6.223 0 01-2.088-1.395 6.29 6.29 0 01-1.341-2.106 7.249 7.249 0 01-.477-2.655c0-.954.159-1.836.477-2.646a6.27 6.27 0 011.34-2.115 6.114 6.114 0 012.089-1.386c.81-.336 1.707-.504 2.69-.504.66 0 1.282.078 1.864.234.582.15 1.116.366 1.602.648a5.66 5.66 0 011.305 1.017c.39.396.72.84.99 1.332.27.492.474 1.026.612 1.602a7.47 7.47 0 01.216 1.818zm-2.475 0c0-.714-.096-1.353-.288-1.917a4.113 4.113 0 00-.82-1.449 3.499 3.499 0 00-1.295-.909c-.504-.21-1.074-.315-1.71-.315-.636 0-1.21.105-1.72.315-.503.21-.935.513-1.295.909a4.113 4.113 0 00-.82 1.449c-.191.564-.287 1.203-.287 1.917s.096 1.356.288 1.926c.192.564.465 1.044.819 1.44.36.39.792.69 1.296.9.51.21 1.083.315 1.719.315.636 0 1.206-.105 1.71-.315.51-.21.942-.51 1.296-.9.354-.396.627-.876.819-1.44.192-.57.288-1.212.288-1.926zm9.839 4.554c.468 0 .885-.078 1.251-.234.372-.156.684-.375.936-.657.252-.282.444-.624.576-1.026a4.14 4.14 0 00.207-1.35V8.986h2.421v7.794c0 .774-.126 1.491-.378 2.151a4.852 4.852 0 01-1.071 1.701 4.896 4.896 0 01-1.692 1.116c-.666.264-1.416.396-2.25.396-.84 0-1.593-.132-2.259-.396a4.992 4.992 0 01-1.701-1.116 5.03 5.03 0 01-1.071-1.701 6.111 6.111 0 01-.369-2.151V8.986h2.421v7.785c0 .498.066.948.198 1.35.138.402.333.747.585 1.035.258.282.57.501.936.657a3.23 3.23 0 001.26.234zm19.677-4.554c0 .954-.159 1.83-.477 2.628a6.037 6.037 0 01-1.34 2.061 6 6 0 01-2.08 1.341c-.81.318-1.71.477-2.7.477H86.14V8.986h4.96c.99 0 1.89.162 2.7.486a6 6 0 012.078 1.341 5.942 5.942 0 011.341 2.052c.318.798.477 1.674.477 2.628zm-2.484 0c0-.714-.096-1.353-.288-1.917a3.85 3.85 0 00-.819-1.44 3.499 3.499 0 00-1.296-.909c-.504-.21-1.074-.315-1.71-.315H88.57v9.162h2.53c.635 0 1.205-.105 1.71-.315.51-.21.941-.51 1.295-.9.36-.396.633-.876.82-1.44.191-.57.287-1.212.287-1.926zm9.491 4.617c.45 0 .828-.054 1.134-.162.306-.108.549-.252.729-.432.186-.18.318-.39.396-.63a2.3 2.3 0 00.126-.765c0-.282-.045-.534-.135-.756a1.387 1.387 0 00-.423-.576 1.937 1.937 0 00-.747-.369 4.084 4.084 0 00-1.089-.126h-2.439v3.816h2.448zm-2.448-9.252v3.762h1.926c.828 0 1.452-.15 1.872-.45.426-.3.639-.777.639-1.431 0-.678-.192-1.161-.576-1.449-.384-.288-.984-.432-1.8-.432h-2.061zm2.061-1.872c.852 0 1.581.081 2.187.243.606.162 1.101.393 1.485.693.39.3.675.663.855 1.089.18.426.27.906.27 1.44 0 .306-.045.6-.135.882-.09.276-.231.537-.423.783-.186.24-.426.459-.72.657a4.263 4.263 0 01-1.035.504c1.788.402 2.682 1.368 2.682 2.898 0 .552-.105 1.062-.315 1.53-.21.468-.516.873-.918 1.215-.402.336-.897.6-1.485.792-.588.192-1.26.288-2.016.288h-4.914V8.986h4.482zm12.603 11.061c.468 0 .885-.078 1.251-.234.372-.156.684-.375.936-.657.252-.282.444-.624.576-1.026a4.14 4.14 0 00.207-1.35V8.986h2.421v7.794c0 .774-.126 1.491-.378 2.151a4.852 4.852 0 01-1.071 1.701 4.896 4.896 0 01-1.692 1.116c-.666.264-1.416.396-2.25.396-.84 0-1.593-.132-2.259-.396a4.992 4.992 0 01-1.701-1.116 5.03 5.03 0 01-1.071-1.701 6.111 6.111 0 01-.369-2.151V8.986h2.421v7.785c0 .498.066.948.198 1.35.138.402.333.747.585 1.035.258.282.57.501.936.657a3.23 3.23 0 001.26.234zm19.678-4.554c0 .954-.159 1.83-.477 2.628a6.037 6.037 0 01-1.341 2.061 6 6 0 01-2.079 1.341c-.81.318-1.71.477-2.7.477h-4.959V8.986H130c.99 0 1.89.162 2.7.486a6 6 0 012.079 1.341 5.942 5.942 0 011.341 2.052c.318.798.477 1.674.477 2.628zm-2.484 0c0-.714-.096-1.353-.288-1.917a3.85 3.85 0 00-.819-1.44 3.499 3.499 0 00-1.296-.909c-.504-.21-1.074-.315-1.71-.315h-2.529v9.162H130c.636 0 1.206-.105 1.71-.315.51-.21.942-.51 1.296-.9.36-.396.633-.876.819-1.44.192-.57.288-1.212.288-1.926zm15.349-.018v5.265a6.967 6.967 0 01-2.115 1.071 8.334 8.334 0 01-2.394.333c-1.062 0-2.025-.165-2.889-.495a6.515 6.515 0 01-2.205-1.377 6.063 6.063 0 01-1.404-2.106c-.33-.816-.495-1.707-.495-2.673 0-.978.159-1.875.477-2.691a6.104 6.104 0 011.35-2.106 6.093 6.093 0 012.133-1.368c.834-.324 1.77-.486 2.808-.486.528 0 1.02.042 1.476.126.462.084.888.201 1.278.351a5.32 5.32 0 011.08.531c.324.21.621.441.891.693l-.693 1.098a.68.68 0 01-.423.324c-.174.036-.363-.009-.567-.135l-.594-.342a3.78 3.78 0 00-.666-.297 5.251 5.251 0 00-.819-.207 5.952 5.952 0 00-1.044-.081c-.642 0-1.224.108-1.746.324a3.693 3.693 0 00-1.323.927 4.178 4.178 0 00-.846 1.449 5.678 5.678 0 00-.297 1.89c0 .744.105 1.41.315 1.998.216.582.516 1.077.9 1.485.39.402.858.711 1.404.927.546.21 1.155.315 1.827.315.48 0 .909-.051 1.287-.153.378-.102.747-.24 1.107-.414v-2.358h-1.638a.52.52 0 01-.369-.126.458.458 0 01-.126-.324v-1.368h4.32zm4.763-4.563v3.609h4.554v1.863h-4.554v3.681h5.778V22h-8.208V8.986h8.208v1.926h-5.778zm17.013.063h-3.924V22h-2.421V10.975h-3.924V8.986h10.269v1.989zM21.605 13.05c0-.435.145-.87.145-1.45 0-3.19-2.61-5.8-5.8-5.8-2.32 0-4.205 1.305-5.22 3.19-.29-.145-.87-.29-1.305-.29A3.59 3.59 0 005.8 12.325c0 .29 0 .58.145.725-2.61.435-4.495 2.465-4.495 5.075 0 2.755 2.32 5.075 5.075 5.075h14.5c2.755 0 5.075-2.32 5.075-5.075 0-2.61-1.885-4.785-4.495-5.075z" fill="#fff"/></svg>